<svg width="92" height="27" viewBox="0 0 92 27" fill="none" xmlns="http://www.w3.org/2000/svg">
<path d="M0 9.99995C0 8.3431 1.34315 6.99995 3 6.99995H66C67.6569 6.99995 69 8.3431 69 9.99995V18C69 19.6568 67.6569 21 66 21H3C1.34315 21 0 19.6568 0 18V9.99995Z" fill="#FFC100"/>
<path d="M0.5 9.99995C0.5 8.61924 1.61929 7.49995 3 7.49995H66C67.3807 7.49995 68.5 8.61924 68.5 9.99995V18C68.5 19.3807 67.3807 20.5 66 20.5H3C1.61929 20.5 0.5 19.3807 0.5 18V9.99995Z" stroke="#FFC727"/>
<path d="M20.9417 16.9545V10.4745H23.4887C23.8997 10.4745 24.2447 10.5585 24.5237 10.7265C24.8027 10.8945 25.0127 11.112 25.1537 11.379C25.2947 11.643 25.3652 11.922 25.3652 12.216C25.3652 12.573 25.2767 12.879 25.0997 13.134C24.9257 13.389 24.6902 13.563 24.3932 13.656L24.3842 13.4355C24.7982 13.5375 25.1162 13.737 25.3382 14.034C25.5602 14.328 25.6712 14.6715 25.6712 15.0645C25.6712 15.4455 25.5947 15.777 25.4417 16.059C25.2917 16.341 25.0712 16.5615 24.7802 16.7205C24.4922 16.8765 24.1427 16.9545 23.7317 16.9545H20.9417ZM21.8957 16.059H23.5877C23.8007 16.059 23.9912 16.0185 24.1592 15.9375C24.3302 15.8565 24.4637 15.741 24.5597 15.591C24.6587 15.438 24.7082 15.2565 24.7082 15.0465C24.7082 14.8515 24.6647 14.676 24.5777 14.52C24.4937 14.361 24.3707 14.2365 24.2087 14.1465C24.0497 14.0535 23.8622 14.007 23.6462 14.007H21.8957V16.059ZM21.8957 13.1205H23.4752C23.6492 13.1205 23.8052 13.086 23.9432 13.017C24.0842 12.945 24.1952 12.843 24.2762 12.711C24.3602 12.576 24.4022 12.414 24.4022 12.225C24.4022 11.973 24.3182 11.766 24.1502 11.604C23.9822 11.442 23.7572 11.361 23.4752 11.361H21.8957V13.1205ZM28.7492 17.0895C28.2662 17.0895 27.8417 16.9845 27.4757 16.7745C27.1127 16.5615 26.8292 16.266 26.6252 15.888C26.4242 15.507 26.3237 15.066 26.3237 14.565C26.3237 14.034 26.4227 13.5735 26.6207 13.1835C26.8217 12.7935 27.1007 12.492 27.4577 12.279C27.8147 12.066 28.2302 11.9595 28.7042 11.9595C29.1992 11.9595 29.6207 12.075 29.9687 12.306C30.3167 12.534 30.5762 12.8595 30.7472 13.2825C30.9212 13.7055 30.9902 14.208 30.9542 14.79H30.0137V14.448C30.0077 13.884 29.8997 13.467 29.6897 13.197C29.4827 12.927 29.1662 12.792 28.7402 12.792C28.2692 12.792 27.9152 12.9405 27.6782 13.2375C27.4412 13.5345 27.3227 13.9635 27.3227 14.5245C27.3227 15.0585 27.4412 15.4725 27.6782 15.7665C27.9152 16.0575 28.2572 16.203 28.7042 16.203C28.9982 16.203 29.2517 16.137 29.4647 16.005C29.6807 15.87 29.8487 15.678 29.9687 15.429L30.8912 15.7215C30.7022 16.1565 30.4157 16.494 30.0317 16.734C29.6477 16.971 29.2202 17.0895 28.7492 17.0895ZM27.0167 14.79V14.0565H30.4862V14.79H27.0167ZM33.8493 17.085C33.2583 17.085 32.7768 16.9545 32.4048 16.6935C32.0328 16.4325 31.8048 16.065 31.7208 15.591L32.6838 15.4425C32.7438 15.6945 32.8818 15.894 33.0978 16.041C33.3168 16.185 33.5883 16.257 33.9123 16.257C34.2063 16.257 34.4358 16.197 34.6008 16.077C34.7688 15.957 34.8528 15.792 34.8528 15.582C34.8528 15.459 34.8228 15.36 34.7628 15.285C34.7058 15.207 34.5843 15.1335 34.3983 15.0645C34.2123 14.9955 33.9288 14.91 33.5478 14.808C33.1308 14.7 32.7993 14.5845 32.5533 14.4615C32.3103 14.3355 32.1363 14.19 32.0313 14.025C31.9293 13.857 31.8783 13.6545 31.8783 13.4175C31.8783 13.1235 31.9563 12.867 32.1123 12.648C32.2683 12.429 32.4873 12.2595 32.7693 12.1395C33.0543 12.0195 33.3873 11.9595 33.7683 11.9595C34.1403 11.9595 34.4718 12.018 34.7628 12.135C35.0538 12.252 35.2893 12.4185 35.4693 12.6345C35.6493 12.8475 35.7573 13.098 35.7933 13.386L34.8303 13.5615C34.7973 13.3275 34.6878 13.143 34.5018 13.008C34.3158 12.873 34.0743 12.7995 33.7773 12.7875C33.4923 12.7755 33.2613 12.8235 33.0843 12.9315C32.9073 13.0365 32.8188 13.182 32.8188 13.368C32.8188 13.476 32.8518 13.5675 32.9178 13.6425C32.9868 13.7175 33.1188 13.7895 33.3138 13.8585C33.5088 13.9275 33.7968 14.01 34.1778 14.106C34.5858 14.211 34.9098 14.328 35.1498 14.457C35.3898 14.583 35.5608 14.7345 35.6628 14.9115C35.7678 15.0855 35.8203 15.297 35.8203 15.546C35.8203 16.026 35.6448 16.4025 35.2938 16.6755C34.9458 16.9485 34.4643 17.085 33.8493 17.085ZM39.624 16.9545C39.318 17.0145 39.018 17.04 38.724 17.031C38.43 17.022 38.1675 16.965 37.9365 16.86C37.7055 16.755 37.5315 16.59 37.4145 16.365C37.3095 16.164 37.2525 15.96 37.2435 15.753C37.2375 15.543 37.2345 15.306 37.2345 15.042V10.7445H38.1795V14.997C38.1795 15.192 38.181 15.3615 38.184 15.5055C38.19 15.6495 38.2215 15.771 38.2785 15.87C38.3865 16.056 38.5575 16.1625 38.7915 16.1895C39.0285 16.2135 39.306 16.203 39.624 16.158V16.9545ZM36.303 12.8505V12.0945H39.624V12.8505H36.303ZM42.5342 17.085C41.9432 17.085 41.4617 16.9545 41.0897 16.6935C40.7177 16.4325 40.4897 16.065 40.4057 15.591L41.3687 15.4425C41.4287 15.6945 41.5667 15.894 41.7827 16.041C42.0017 16.185 42.2732 16.257 42.5972 16.257C42.8912 16.257 43.1207 16.197 43.2857 16.077C43.4537 15.957 43.5377 15.792 43.5377 15.582C43.5377 15.459 43.5077 15.36 43.4477 15.285C43.3907 15.207 43.2692 15.1335 43.0832 15.0645C42.8972 14.9955 42.6137 14.91 42.2327 14.808C41.8157 14.7 41.4842 14.5845 41.2382 14.4615C40.9952 14.3355 40.8212 14.19 40.7162 14.025C40.6142 13.857 40.5632 13.6545 40.5632 13.4175C40.5632 13.1235 40.6412 12.867 40.7972 12.648C40.9532 12.429 41.1722 12.2595 41.4542 12.1395C41.7392 12.0195 42.0722 11.9595 42.4532 11.9595C42.8252 11.9595 43.1567 12.018 43.4477 12.135C43.7387 12.252 43.9742 12.4185 44.1542 12.6345C44.3342 12.8475 44.4422 13.098 44.4782 13.386L43.5152 13.5615C43.4822 13.3275 43.3727 13.143 43.1867 13.008C43.0007 12.873 42.7592 12.7995 42.4622 12.7875C42.1772 12.7755 41.9462 12.8235 41.7692 12.9315C41.5922 13.0365 41.5037 13.182 41.5037 13.368C41.5037 13.476 41.5367 13.5675 41.6027 13.6425C41.6717 13.7175 41.8037 13.7895 41.9987 13.8585C42.1937 13.9275 42.4817 14.01 42.8627 14.106C43.2707 14.211 43.5947 14.328 43.8347 14.457C44.0747 14.583 44.2457 14.7345 44.3477 14.9115C44.4527 15.0855 44.5052 15.297 44.5052 15.546C44.5052 16.026 44.3297 16.4025 43.9787 16.6755C43.6307 16.9485 43.1492 17.085 42.5342 17.085ZM47.6834 17.0895C47.2004 17.0895 46.7759 16.9845 46.4099 16.7745C46.0469 16.5615 45.7634 16.266 45.5594 15.888C45.3584 15.507 45.2579 15.066 45.2579 14.565C45.2579 14.034 45.3569 13.5735 45.5549 13.1835C45.7559 12.7935 46.0349 12.492 46.3919 12.279C46.7489 12.066 47.1644 11.9595 47.6384 11.9595C48.1334 11.9595 48.5549 12.075 48.9029 12.306C49.2509 12.534 49.5104 12.8595 49.6814 13.2825C49.8554 13.7055 49.9244 14.208 49.8884 14.79H48.9479V14.448C48.9419 13.884 48.8339 13.467 48.6239 13.197C48.4169 12.927 48.1004 12.792 47.6744 12.792C47.2034 12.792 46.8494 12.9405 46.6124 13.2375C46.3754 13.5345 46.2569 13.9635 46.2569 14.5245C46.2569 15.0585 46.3754 15.4725 46.6124 15.7665C46.8494 16.0575 47.1914 16.203 47.6384 16.203C47.9324 16.203 48.1859 16.137 48.3989 16.005C48.6149 15.87 48.7829 15.678 48.9029 15.429L49.8254 15.7215C49.6364 16.1565 49.3499 16.494 48.9659 16.734C48.5819 16.971 48.1544 17.0895 47.6834 17.0895ZM45.9509 14.79V14.0565H49.4204V14.79H45.9509ZM51.015 16.9545V10.3395H51.9555V16.9545H51.015ZM53.4238 16.9545V10.3395H54.3643V16.9545H53.4238ZM57.8982 17.0895C57.4152 17.0895 56.9907 16.9845 56.6247 16.7745C56.2617 16.5615 55.9782 16.266 55.7742 15.888C55.5732 15.507 55.4727 15.066 55.4727 14.565C55.4727 14.034 55.5717 13.5735 55.7697 13.1835C55.9707 12.7935 56.2497 12.492 56.6067 12.279C56.9637 12.066 57.3792 11.9595 57.8532 11.9595C58.3482 11.9595 58.7697 12.075 59.1177 12.306C59.4657 12.534 59.7252 12.8595 59.8962 13.2825C60.0702 13.7055 60.1392 14.208 60.1032 14.79H59.1627V14.448C59.1567 13.884 59.0487 13.467 58.8387 13.197C58.6317 12.927 58.3152 12.792 57.8892 12.792C57.4182 12.792 57.0642 12.9405 56.8272 13.2375C56.5902 13.5345 56.4717 13.9635 56.4717 14.5245C56.4717 15.0585 56.5902 15.4725 56.8272 15.7665C57.0642 16.0575 57.4062 16.203 57.8532 16.203C58.1472 16.203 58.4007 16.137 58.6137 16.005C58.8297 15.87 58.9977 15.678 59.1177 15.429L60.0402 15.7215C59.8512 16.1565 59.5647 16.494 59.1807 16.734C58.7967 16.971 58.3692 17.0895 57.8982 17.0895ZM56.1657 14.79V14.0565H59.6352V14.79H56.1657ZM61.1398 16.9545V12.0945H61.9768V13.2735L61.8598 13.1205C61.9198 12.9645 61.9978 12.822 62.0938 12.693C62.1898 12.561 62.3008 12.453 62.4268 12.369C62.5498 12.279 62.6863 12.21 62.8363 12.162C62.9893 12.111 63.1453 12.081 63.3043 12.072C63.4633 12.06 63.6163 12.0675 63.7633 12.0945V12.9765C63.6043 12.9345 63.4273 12.9225 63.2323 12.9405C63.0403 12.9585 62.8633 13.02 62.7013 13.125C62.5483 13.224 62.4268 13.344 62.3368 13.485C62.2498 13.626 62.1868 13.7835 62.1478 13.9575C62.1088 14.1285 62.0893 14.31 62.0893 14.502V16.9545H61.1398Z" fill="white"/>
<path d="M8.36361 8.12338L9.70487 12.2513H14.0452L10.5338 14.8025L11.8751 18.9305L8.36361 16.3793L4.85217 18.9305L6.19342 14.8025L2.68198 12.2513H7.02236L8.36361 8.12338Z" fill="white"/>
</svg>
