<svg width="74" height="70" viewBox="0 0 74 70" fill="none" xmlns="http://www.w3.org/2000/svg">
<g clip-path="url(#clip0_48_128)">
<path d="M74 55.5494C73.7 55.7642 73.4144 55.9883 73.1411 56.2448C72.771 56.5909 72.3235 56.8693 71.7565 56.8682C65.1517 56.8547 58.5459 56.8515 51.9411 56.8453C52.5577 55.9268 53.2289 55.0407 53.7764 54.0815C54.5857 52.6626 55.3198 51.1989 56.058 49.7394C56.8189 48.2339 57.4056 46.6587 57.9623 45.0792C58.3397 44.0085 58.8037 42.9608 58.9047 41.7608C58.9552 41.1551 59.3718 40.5025 59.4728 39.7998C59.5305 39.3985 59.4573 39.3526 59.1212 39.3536C56.3343 39.3693 53.5475 39.3755 50.7616 39.3849C50.3781 39.3755 49.9946 39.3588 49.611 39.3578C45.3859 39.3463 41.1607 39.338 36.9355 39.3286C36.9355 34.9687 36.9355 30.6099 36.9355 26.25C37.2717 26.2406 37.6067 26.2239 37.9429 26.2229C42.6505 26.2125 47.3582 26.2041 52.0659 26.1958C54.9548 26.1958 57.8448 26.1958 60.7337 26.1958C61.3575 26.2041 61.9823 26.1937 62.6051 26.2229C64.4238 26.3063 65.0187 27.1528 65.0434 28.6979C65.094 31.9985 65.0826 35.3013 65.0393 38.602C65.03 39.2796 65.2393 39.3828 65.8363 39.3703C67.6839 39.3317 69.5336 39.338 71.3812 39.364C72.2194 39.3755 73.0092 39.5569 73.503 40.3701C74.0175 41.2166 73.9567 42.0288 73.4288 42.8357C72.3576 44.4725 71.2987 46.1166 70.2079 47.7398C70.0213 48.0171 69.9831 48.1401 70.1945 48.4518C71.3203 50.1084 72.3751 51.813 73.4999 53.4706C73.8185 53.9408 73.7031 54.5142 74.0021 54.9645V55.5484L74 55.5494Z" fill="#541EBC"/>
<path d="M21.799 56.837C16.7171 56.8432 11.6362 56.8505 6.55425 56.8557C5.52322 56.8568 4.4891 56.8026 3.46322 56.8693C2.13217 56.9568 0.920708 56.7921 0 55.6943V53.798C1.32693 52.1101 2.38683 50.2377 3.6086 48.4779C3.80862 48.1902 3.77975 47.9921 3.58901 47.7075C2.38064 45.906 1.19393 44.0878 0 42.2759C0 41.79 0 41.3032 0 40.8174C0.585624 39.6372 1.57954 39.3297 2.81058 39.3568C4.80253 39.4006 6.79654 39.3589 8.78952 39.3536C10.6206 39.3589 12.4528 39.3641 14.2839 39.3693C14.2643 39.9031 14.4158 40.4035 14.5437 40.9133C14.9891 42.695 15.5788 44.4256 16.216 46.1458C17.1821 48.7521 18.4533 51.201 19.7937 53.6239C20.4082 54.7342 21.2804 55.6714 21.798 56.838L21.799 56.837Z" fill="#541EBC"/>
<path d="M52.0649 26.1968C47.3572 26.2052 42.6496 26.2135 37.9419 26.2239C37.6058 26.2239 37.2707 26.2417 36.9346 26.251L36.9263 26.1906C36.9263 20.8705 36.9284 15.5494 36.9273 10.2294C36.9273 9.37239 36.8222 9.28795 36.0015 9.60488C34.7931 10.0719 33.5982 10.5724 32.398 11.0582C29.4184 12.2623 26.4408 13.4737 23.457 14.6653C22.2878 15.1324 21.7516 15.9445 21.7692 17.2383C21.8104 20.2262 21.7826 23.2141 21.7826 26.2031C18.8967 26.2031 16.0109 26.2031 13.1261 26.2041C13.1261 21.3251 13.1518 16.446 13.1157 11.5669C13.1023 9.73728 13.4333 9.28378 15.0283 8.63949C20.4268 6.45851 25.8324 4.29733 31.234 2.12573C32.7517 1.51584 34.2652 0.894494 35.7788 0.27627C36.1489 0.125103 36.5242 -0.00208678 36.9294 0.00208337C36.9294 2.86906 36.9325 5.73707 36.9232 8.60404C36.9222 8.99604 36.9645 9.24833 37.4078 9.42348C41.8454 11.1801 46.2757 12.9535 50.6916 14.7654C51.5329 15.1105 52.0742 15.7996 52.0742 16.7952C52.0721 19.9301 52.068 23.064 52.0649 26.1989V26.1968Z" fill="#FDBF00"/>
<path d="M13.126 26.2021C16.0118 26.2021 18.8977 26.2021 21.7825 26.201C24.7013 26.2093 27.6202 26.225 30.5401 26.2239C32.6691 26.2239 34.7982 26.2021 36.9262 26.1906L36.9345 26.251C36.9345 30.6109 36.9345 34.9698 36.9345 39.3297L36.9242 39.386C32.3567 39.3828 27.7882 39.3807 23.2208 39.3776C20.2421 39.3745 17.2635 39.3714 14.2849 39.3682C12.4538 39.363 10.6216 39.3578 8.79051 39.3526C8.79463 35.7892 8.84928 32.2248 8.77917 28.6635C8.74927 27.132 9.83494 26.1322 11.1866 26.2177C11.83 26.2583 12.4795 26.2104 13.126 26.2031V26.2021Z" fill="#7527F5"/>
<path d="M52.0649 26.1968C52.068 23.0619 52.0721 19.9281 52.0742 16.7932C52.0742 15.7975 51.5329 15.1084 50.6916 14.7633C46.2757 12.9514 41.8454 11.1791 37.4078 9.42139C36.9645 9.24625 36.9222 8.99395 36.9232 8.60196C36.9335 5.73499 36.9294 2.86697 36.9294 0C38.111 0.100083 39.1265 0.705797 40.1947 1.13115C45.19 3.12031 50.173 5.1397 55.157 7.15492C56.5406 7.71476 57.9088 8.31422 59.2955 8.86885C60.3833 9.30359 60.7328 10.1533 60.7317 11.2521C60.7276 16.2344 60.7317 21.2156 60.7317 26.1979C57.8428 26.1979 54.9528 26.1979 52.0639 26.1968H52.0649Z" fill="#FF9100"/>
<path d="M14.2849 39.3682C17.2636 39.3714 20.2422 39.3745 23.2208 39.3776C23.2373 39.4975 23.2415 39.6205 23.2734 39.7362C24.0828 42.6439 25.2427 45.4003 26.7109 48.0307C28.8863 51.9287 31.632 55.3555 34.9746 58.2861C35.3076 58.578 35.6179 58.9304 36.0747 59.0805C36.8181 59.3255 36.9273 59.2671 36.9273 58.4883C36.9273 52.1205 36.9253 45.7538 36.9242 39.3859L36.9346 39.3297C41.1597 39.339 45.3849 39.3474 49.61 39.3588C49.9936 39.3588 50.3771 39.3766 50.7606 39.3859C50.2317 41.1697 49.6389 42.9327 48.8842 44.632C46.7108 49.5277 43.7084 53.8365 39.8153 57.4885C39.1255 58.1349 38.4966 58.9262 37.5315 59.1952C37.0511 59.3297 36.9119 59.5642 36.915 60.0646C36.9397 63.3643 36.9294 66.6649 36.9294 69.9646C36.5026 70.0771 36.1427 69.9062 35.786 69.7008C33.625 68.4581 31.7052 66.8849 29.772 65.3201C28.3275 64.1503 27.014 62.8503 25.7396 61.5075C24.4107 60.1063 23.2343 58.5707 22.0795 57.0215C21.995 56.9089 21.9083 56.8734 21.7991 56.838C21.2815 55.6714 20.4092 54.7331 19.7947 53.6239C18.4544 51.201 17.1821 48.7521 16.2171 46.1457C15.5799 44.4266 14.9912 42.695 14.5447 40.9133C14.4169 40.4024 14.2653 39.902 14.2849 39.3693V39.3682Z" fill="#FDBF00"/>
<path d="M36.9304 69.9646C36.9304 66.6649 36.9407 63.3643 36.916 60.0646C36.9119 59.5653 37.051 59.3297 37.5325 59.1952C38.4976 58.9262 39.1265 58.1349 39.8163 57.4885C43.7094 53.8365 46.7108 49.5277 48.8852 44.632C49.6399 42.9327 50.2327 41.1697 50.7617 39.386C53.5485 39.3766 56.3354 39.3703 59.1212 39.3547C59.4574 39.3526 59.5306 39.3995 59.4728 39.8009C59.3718 40.5036 58.9552 41.1562 58.9047 41.7619C58.8037 42.9619 58.3397 44.0096 57.9624 45.0803C57.4056 46.6597 56.819 48.235 56.0581 49.7404C55.3198 51.201 54.5857 52.6637 53.7764 54.0826C53.2289 55.0417 52.5577 55.9268 51.9412 56.8463C51.071 57.9129 50.1802 58.9637 49.3368 60.0521C48.7759 60.7757 48.0861 61.3636 47.4737 62.0309C44.8735 64.8614 41.9051 67.2362 38.6801 69.2911C38.1501 69.6289 37.6336 70.0605 36.9304 69.9656V69.9646Z" fill="#FF9100"/>
<path d="M36.9262 26.1906C34.7972 26.2031 32.6681 26.2239 30.5401 26.2239C27.6212 26.2239 24.7024 26.2093 21.7825 26.201C21.7825 23.2131 21.8093 20.2241 21.7691 17.2362C21.7516 15.9424 22.2877 15.1303 23.4569 14.6633C26.4417 13.4716 29.4183 12.2602 32.398 11.0561C33.5991 10.5713 34.7941 10.0698 36.0014 9.60279C36.8211 9.28586 36.9273 9.3703 36.9273 10.2273C36.9273 15.5473 36.9273 20.8684 36.9262 26.1885V26.1906Z" fill="#FFDA2D"/>
<path d="M36.9242 39.386C36.9253 45.7538 36.9273 52.1205 36.9273 58.4883C36.9273 59.2671 36.817 59.3255 36.0747 59.0805C35.6179 58.9304 35.3076 58.578 34.9745 58.2861C31.6309 55.3555 28.8863 51.9287 26.7109 48.0307C25.2427 45.4003 24.0828 42.6439 23.2734 39.7362C23.2414 39.6205 23.2384 39.4975 23.2208 39.3776C27.7883 39.3807 32.3568 39.3828 36.9242 39.386Z" fill="#FFDA2D"/>
</g>
<defs>
<clipPath id="clip0_48_128">
<rect width="74" height="70" fill="white"/>
</clipPath>
</defs>
</svg>
