<svg width="20" height="20" viewBox="0 0 20 20" fill="none" xmlns="http://www.w3.org/2000/svg">
<path d="M12.4997 9.99864V18.753C12.5496 19.0863 12.4247 19.4418 12.1372 19.6751C12.0216 19.7781 11.8842 19.8598 11.733 19.9156C11.5818 19.9713 11.4198 20 11.2561 20C11.0924 20 10.9303 19.9713 10.7791 19.9156C10.6279 19.8598 10.4906 19.7781 10.3749 19.6751L7.8628 17.4421C7.72648 17.3236 7.62284 17.1788 7.55996 17.0188C7.49708 16.8588 7.47668 16.6881 7.50035 16.52V9.99864H7.46285L0.263848 1.79976C0.0608864 1.56815 -0.030694 1.27456 0.00911818 0.983122C0.0489303 0.691686 0.216898 0.426105 0.476319 0.244411C0.713786 0.0888769 0.976249 0 1.25121 0H18.7488C19.0238 0 19.2862 0.0888769 19.5237 0.244411C19.7831 0.426105 19.9511 0.691686 19.9909 0.983122C20.0307 1.27456 19.9391 1.56815 19.7362 1.79976L12.5371 9.99864H12.4997Z" fill="#7427F5"/>
</svg>
