<svg width="55" height="25" viewBox="0 0 55 25" fill="none" xmlns="http://www.w3.org/2000/svg">
<path d="M30.2852 19V16.741H24.4352V14.959L28.6472 6.04H30.7982L26.5862 14.959H30.2852V11.449H32.1932V14.959H33.4802V16.741H32.1932V19H30.2852ZM35.3074 19V17.011H37.2964V19H35.3074ZM44.3457 19.27C43.4637 19.27 42.6837 19.078 42.0057 18.694C41.3277 18.304 40.7937 17.77 40.4037 17.092C40.0197 16.414 39.8277 15.634 39.8277 14.752V10.288C39.8277 9.406 40.0197 8.626 40.4037 7.948C40.7937 7.27 41.3277 6.739 42.0057 6.355C42.6837 5.965 43.4637 5.77 44.3457 5.77C45.2277 5.77 46.0077 5.965 46.6857 6.355C47.3637 6.739 47.8947 7.27 48.2787 7.948C48.6687 8.626 48.8637 9.406 48.8637 10.288V14.752C48.8637 15.634 48.6687 16.414 48.2787 17.092C47.8947 17.77 47.3637 18.304 46.6857 18.694C46.0077 19.078 45.2277 19.27 44.3457 19.27ZM44.3457 17.47C44.8257 17.47 45.2607 17.356 45.6507 17.128C46.0467 16.894 46.3617 16.582 46.5957 16.192C46.8297 15.796 46.9467 15.355 46.9467 14.869V10.153C46.9467 9.673 46.8297 9.238 46.5957 8.848C46.3617 8.452 46.0467 8.14 45.6507 7.912C45.2607 7.678 44.8257 7.561 44.3457 7.561C43.8657 7.561 43.4277 7.678 43.0317 7.912C42.6417 8.14 42.3297 8.452 42.0957 8.848C41.8617 9.238 41.7447 9.673 41.7447 10.153V14.869C41.7447 15.355 41.8617 15.796 42.0957 16.192C42.3297 16.582 42.6417 16.894 43.0317 17.128C43.4277 17.356 43.8657 17.47 44.3457 17.47Z" fill="black"/>
<path d="M9.85217 4.01562L11.9041 9.54349H18.5443L13.1723 12.9599L15.2242 18.4878L9.85217 15.0714L4.48013 18.4878L6.53207 12.9599L1.16002 9.54349H7.80023L9.85217 4.01562Z" fill="#42A606"/>
</svg>
