<svg width="17" height="28" viewBox="0 0 17 28" fill="none" xmlns="http://www.w3.org/2000/svg">
<path d="M8.5 0.415314C3.8046 0.415314 0 4.20461 0 8.89831C0 17.0141 8.5 27.5983 8.5 27.5983C8.5 27.5983 17 17.0124 17 8.89831C17 4.20631 13.1954 0.415314 8.5 0.415314ZM8.5 13.592C7.28266 13.592 6.11517 13.1084 5.25438 12.2476C4.39359 11.3868 3.91 10.2194 3.91 9.00201C3.91 7.78467 4.39359 6.61719 5.25438 5.75639C6.11517 4.8956 7.28266 4.41201 8.5 4.41201C9.71734 4.41201 10.8848 4.8956 11.7456 5.75639C12.6064 6.61719 13.09 7.78467 13.09 9.00201C13.09 10.2194 12.6064 11.3868 11.7456 12.2476C10.8848 13.1084 9.71734 13.592 8.5 13.592Z" fill="#7427F5"/>
</svg>
