<svg width="9" height="14" viewBox="0 0 9 14" fill="none" xmlns="http://www.w3.org/2000/svg">
<path d="M4.37774 0C1.95947 0 0 1.95159 0 4.36898C0 8.54884 4.37774 14 4.37774 14C4.37774 14 8.75547 8.54797 8.75547 4.36898C8.75547 1.95247 6.796 0 4.37774 0ZM4.37774 6.78637C3.75077 6.78637 3.14948 6.53731 2.70615 6.09397C2.26282 5.65064 2.01376 5.04935 2.01376 4.42239C2.01376 3.79542 2.26282 3.19414 2.70615 2.7508C3.14948 2.30747 3.75077 2.05841 4.37774 2.05841C5.0047 2.05841 5.60599 2.30747 6.04932 2.7508C6.49265 3.19414 6.74171 3.79542 6.74171 4.42239C6.74171 5.04935 6.49265 5.65064 6.04932 6.09397C5.60599 6.53731 5.0047 6.78637 4.37774 6.78637Z" fill="#7427F5"/>
</svg>
