<svg width="31" height="47" viewBox="0 0 31 47" fill="none" xmlns="http://www.w3.org/2000/svg">
<rect width="31" height="47" fill="#7427F5"/>
<path d="M4.98 11.029H9.05V11.733H4.98V11.029ZM5.068 15H4.254V7.3H9.534V8.004H5.068V15ZM11.0499 15V6.838H11.8309V15H11.0499ZM17.623 15V13.724L17.59 13.515V11.381C17.59 10.8897 17.4507 10.512 17.172 10.248C16.9007 9.984 16.4937 9.852 15.951 9.852C15.577 9.852 15.2214 9.91433 14.884 10.039C14.5467 10.1637 14.2607 10.3287 14.026 10.534L13.674 9.951C13.9674 9.70167 14.3194 9.511 14.73 9.379C15.1407 9.23967 15.5734 9.17 16.028 9.17C16.776 9.17 17.3517 9.357 17.755 9.731C18.1657 10.0977 18.371 10.6587 18.371 11.414V15H17.623ZM15.632 15.055C15.1994 15.055 14.8217 14.9853 14.499 14.846C14.1837 14.6993 13.9417 14.5013 13.773 14.252C13.6044 13.9953 13.52 13.702 13.52 13.372C13.52 13.0713 13.5897 12.8 13.729 12.558C13.8757 12.3087 14.1104 12.1107 14.433 11.964C14.763 11.81 15.203 11.733 15.753 11.733H17.744V12.316H15.775C15.2177 12.316 14.829 12.415 14.609 12.613C14.3964 12.811 14.29 13.0567 14.29 13.35C14.29 13.68 14.4184 13.944 14.675 14.142C14.9317 14.34 15.291 14.439 15.753 14.439C16.193 14.439 16.5707 14.34 16.886 14.142C17.2087 13.9367 17.4434 13.6433 17.59 13.262L17.766 13.801C17.6194 14.1823 17.3627 14.4867 16.996 14.714C16.6367 14.9413 16.182 15.055 15.632 15.055ZM22.3183 15.055C21.7757 15.055 21.3577 14.9083 21.0643 14.615C20.771 14.3217 20.6243 13.9073 20.6243 13.372V7.949H21.4053V13.328C21.4053 13.6653 21.4897 13.9257 21.6583 14.109C21.8343 14.2923 22.0837 14.384 22.4063 14.384C22.751 14.384 23.037 14.285 23.2643 14.087L23.5393 14.648C23.3853 14.7873 23.1983 14.89 22.9783 14.956C22.7657 15.022 22.5457 15.055 22.3183 15.055ZM19.5903 9.874V9.225H23.1653V9.874H19.5903ZM3.363 28V26.845L6.333 24.04C6.56767 23.8273 6.74 23.6367 6.85 23.468C6.96 23.2993 7.03333 23.1453 7.07 23.006C7.114 22.8667 7.136 22.7383 7.136 22.621C7.136 22.313 7.02967 22.0783 6.817 21.917C6.61167 21.7483 6.30733 21.664 5.904 21.664C5.58133 21.664 5.28067 21.7263 5.002 21.851C4.73067 21.9757 4.49967 22.17 4.309 22.434L3.011 21.598C3.30433 21.158 3.715 20.8097 4.243 20.553C4.771 20.2963 5.37967 20.168 6.069 20.168C6.641 20.168 7.13967 20.2633 7.565 20.454C7.99767 20.6373 8.33133 20.8977 8.566 21.235C8.808 21.5723 8.929 21.9757 8.929 22.445C8.929 22.6943 8.896 22.9437 8.83 23.193C8.77133 23.435 8.64667 23.6917 8.456 23.963C8.27267 24.2343 8.00133 24.5387 7.642 24.876L5.178 27.197L4.837 26.548H9.182V28H3.363ZM12.5353 28.132C11.9999 28.132 11.4683 28.0623 10.9403 27.923C10.4196 27.7763 9.97228 27.571 9.59828 27.307L10.3023 25.943C10.5956 26.1557 10.9329 26.3243 11.3143 26.449C11.7029 26.5737 12.0953 26.636 12.4913 26.636C12.9386 26.636 13.2906 26.548 13.5473 26.372C13.8039 26.196 13.9323 25.9503 13.9323 25.635C13.9323 25.437 13.8809 25.261 13.7783 25.107C13.6756 24.953 13.4923 24.8357 13.2283 24.755C12.9716 24.6743 12.6086 24.634 12.1393 24.634H10.1703L10.5663 20.3H15.2633V21.73H11.2043L12.1283 20.916L11.8533 24.007L10.9293 23.193H12.5573C13.3199 23.193 13.9323 23.2993 14.3943 23.512C14.8636 23.7173 15.2046 23.9997 15.4173 24.359C15.6299 24.7183 15.7363 25.1253 15.7363 25.58C15.7363 26.0347 15.6226 26.4563 15.3953 26.845C15.1679 27.2263 14.8159 27.538 14.3393 27.78C13.8699 28.0147 13.2686 28.132 12.5353 28.132ZM17.4629 28L22.7209 20.3H24.0299L18.7719 28H17.4629ZM18.1339 24.458C17.7599 24.458 17.4299 24.3737 17.1439 24.205C16.8579 24.029 16.6305 23.7833 16.4619 23.468C16.3005 23.1453 16.2199 22.7677 16.2199 22.335C16.2199 21.9023 16.3005 21.5283 16.4619 21.213C16.6305 20.8977 16.8579 20.652 17.1439 20.476C17.4299 20.3 17.7599 20.212 18.1339 20.212C18.5079 20.212 18.8379 20.3 19.1239 20.476C19.4099 20.652 19.6335 20.8977 19.7949 21.213C19.9562 21.5283 20.0369 21.9023 20.0369 22.335C20.0369 22.7677 19.9562 23.1453 19.7949 23.468C19.6335 23.7833 19.4099 24.029 19.1239 24.205C18.8379 24.3737 18.5079 24.458 18.1339 24.458ZM18.1339 23.556C18.3759 23.556 18.5702 23.457 18.7169 23.259C18.8635 23.0537 18.9369 22.7457 18.9369 22.335C18.9369 21.9243 18.8635 21.62 18.7169 21.422C18.5702 21.2167 18.3759 21.114 18.1339 21.114C17.8992 21.114 17.7049 21.2167 17.5509 21.422C17.4042 21.62 17.3309 21.9243 17.3309 22.335C17.3309 22.7383 17.4042 23.0427 17.5509 23.248C17.7049 23.4533 17.8992 23.556 18.1339 23.556ZM23.3589 28.088C22.9922 28.088 22.6622 28.0037 22.3689 27.835C22.0829 27.659 21.8592 27.4133 21.6979 27.098C21.5365 26.7753 21.4559 26.3977 21.4559 25.965C21.4559 25.5323 21.5365 25.1583 21.6979 24.843C21.8592 24.5277 22.0829 24.282 22.3689 24.106C22.6622 23.93 22.9922 23.842 23.3589 23.842C23.7402 23.842 24.0739 23.93 24.3599 24.106C24.6459 24.282 24.8695 24.5277 25.0309 24.843C25.1922 25.1583 25.2729 25.5323 25.2729 25.965C25.2729 26.3977 25.1922 26.7753 25.0309 27.098C24.8695 27.4133 24.6459 27.659 24.3599 27.835C24.0739 28.0037 23.7402 28.088 23.3589 28.088ZM23.3589 27.186C23.6009 27.186 23.7952 27.087 23.9419 26.889C24.0885 26.6837 24.1619 26.3757 24.1619 25.965C24.1619 25.5617 24.0885 25.2573 23.9419 25.052C23.7952 24.8467 23.6009 24.744 23.3589 24.744C23.1242 24.744 22.9299 24.8467 22.7759 25.052C22.6292 25.25 22.5559 25.5543 22.5559 25.965C22.5559 26.3757 22.6292 26.6837 22.7759 26.889C22.9299 27.087 23.1242 27.186 23.3589 27.186ZM7.62 41.066C7.04067 41.066 6.50167 40.9707 6.003 40.78C5.51167 40.582 5.08267 40.307 4.716 39.955C4.35667 39.5957 4.07433 39.1813 3.869 38.712C3.671 38.2353 3.572 37.7147 3.572 37.15C3.572 36.5853 3.671 36.0683 3.869 35.599C4.07433 35.1223 4.35667 34.708 4.716 34.356C5.08267 33.9967 5.51167 33.7217 6.003 33.531C6.49433 33.333 7.03333 33.234 7.62 33.234C8.19933 33.234 8.73467 33.333 9.226 33.531C9.71733 33.7217 10.1427 33.993 10.502 34.345C10.8687 34.697 11.151 35.1113 11.349 35.588C11.5543 36.0647 11.657 36.5853 11.657 37.15C11.657 37.7147 11.5543 38.2353 11.349 38.712C11.151 39.1887 10.8687 39.603 10.502 39.955C10.1427 40.307 9.71733 40.582 9.226 40.78C8.73467 40.9707 8.19933 41.066 7.62 41.066ZM7.62 40.34C8.082 40.34 8.50733 40.263 8.896 40.109C9.292 39.9477 9.633 39.724 9.919 39.438C10.2123 39.1447 10.4397 38.8073 10.601 38.426C10.7623 38.0373 10.843 37.612 10.843 37.15C10.843 36.688 10.7623 36.2663 10.601 35.885C10.4397 35.4963 10.2123 35.159 9.919 34.873C9.633 34.5797 9.292 34.356 8.896 34.202C8.50733 34.0407 8.082 33.96 7.62 33.96C7.158 33.96 6.729 34.0407 6.333 34.202C5.937 34.356 5.59233 34.5797 5.299 34.873C5.013 35.159 4.78567 35.4963 4.617 35.885C4.45567 36.2663 4.375 36.688 4.375 37.15C4.375 37.6047 4.45567 38.0263 4.617 38.415C4.78567 38.8037 5.013 39.1447 5.299 39.438C5.59233 39.724 5.937 39.9477 6.333 40.109C6.729 40.263 7.158 40.34 7.62 40.34ZM13.4485 41V34.499C13.4485 33.9857 13.5989 33.5713 13.8995 33.256C14.2002 32.9407 14.6329 32.783 15.1975 32.783C15.4175 32.783 15.6302 32.8123 15.8355 32.871C16.0409 32.9297 16.2132 33.0213 16.3525 33.146L16.0885 33.729C15.9785 33.6337 15.8502 33.564 15.7035 33.52C15.5569 33.4687 15.3992 33.443 15.2305 33.443C14.9005 33.443 14.6475 33.5347 14.4715 33.718C14.2955 33.9013 14.2075 34.1727 14.2075 34.532V35.412L14.2295 35.775V41H13.4485ZM12.4145 35.874V35.225H15.9895V35.874H12.4145ZM17.1976 41V34.499C17.1976 33.9857 17.3479 33.5713 17.6486 33.256C17.9492 32.9407 18.3819 32.783 18.9466 32.783C19.1666 32.783 19.3792 32.8123 19.5846 32.871C19.7899 32.9297 19.9622 33.0213 20.1016 33.146L19.8376 33.729C19.7276 33.6337 19.5992 33.564 19.4526 33.52C19.3059 33.4687 19.1482 33.443 18.9796 33.443C18.6496 33.443 18.3966 33.5347 18.2206 33.718C18.0446 33.9013 17.9566 34.1727 17.9566 34.532V35.412L17.9786 35.775V41H17.1976ZM16.1636 35.874V35.225H19.7386V35.874H16.1636Z" fill="white"/>
</svg>
