<svg width="34" height="37" viewBox="0 0 34 37" fill="none" xmlns="http://www.w3.org/2000/svg">
<path d="M9.6875 35.0625C10.7576 35.0625 11.625 34.1951 11.625 33.125C11.625 32.0549 10.7576 31.1875 9.6875 31.1875C8.61745 31.1875 7.75 32.0549 7.75 33.125C7.75 34.1951 8.61745 35.0625 9.6875 35.0625Z" fill="#464646"/>
<path d="M23.25 35.0625C24.3201 35.0625 25.1875 34.1951 25.1875 33.125C25.1875 32.0549 24.3201 31.1875 23.25 31.1875C22.1799 31.1875 21.3125 32.0549 21.3125 33.125C21.3125 34.1951 22.1799 35.0625 23.25 35.0625Z" fill="#464646"/>
<path d="M27.125 12.7813H5.63812L4.84375 8.71251C4.79846 8.4904 4.67671 8.29121 4.49971 8.1496C4.3227 8.00799 4.10163 7.93294 3.875 7.93751H0V9.87501H3.08062L6.78125 28.475C6.82654 28.6971 6.94829 28.8963 7.12529 29.0379C7.3023 29.1795 7.52336 29.2546 7.75 29.25H25.1875V27.3125H8.54437L7.75 23.4375H25.1875C25.4114 23.443 25.6304 23.3707 25.807 23.2329C25.9836 23.0951 26.107 22.9004 26.1562 22.6819L28.0937 13.9631C28.1262 13.8194 28.1255 13.6702 28.0915 13.5267C28.0576 13.3833 27.9914 13.2496 27.898 13.1356C27.8046 13.0216 27.6864 12.9305 27.5525 12.8691C27.4185 12.8077 27.2723 12.7776 27.125 12.7813ZM24.4125 21.5H7.38187L6.02562 14.7188H25.9141L24.4125 21.5Z" fill="#464646"/>
<rect x="16.0345" y="0.655182" width="17.1034" height="18.1724" rx="8.55172" fill="#6E6D70"/>
<path d="M24.3128 13.8352C23.7248 13.8352 23.2048 13.7072 22.7528 13.4512C22.3008 13.1912 21.9448 12.8352 21.6848 12.3832C21.4288 11.9312 21.3008 11.4112 21.3008 10.8232V7.84718C21.3008 7.25918 21.4288 6.73918 21.6848 6.28718C21.9448 5.83518 22.3008 5.48118 22.7528 5.22518C23.2048 4.96518 23.7248 4.83518 24.3128 4.83518C24.9008 4.83518 25.4208 4.96518 25.8728 5.22518C26.3248 5.48118 26.6788 5.83518 26.9348 6.28718C27.1948 6.73918 27.3248 7.25918 27.3248 7.84718V10.8232C27.3248 11.4112 27.1948 11.9312 26.9348 12.3832C26.6788 12.8352 26.3248 13.1912 25.8728 13.4512C25.4208 13.7072 24.9008 13.8352 24.3128 13.8352ZM24.3128 12.6352C24.6328 12.6352 24.9228 12.5592 25.1828 12.4072C25.4468 12.2512 25.6568 12.0432 25.8128 11.7832C25.9688 11.5192 26.0468 11.2252 26.0468 10.9012V7.75718C26.0468 7.43718 25.9688 7.14718 25.8128 6.88718C25.6568 6.62318 25.4468 6.41518 25.1828 6.26318C24.9228 6.10718 24.6328 6.02918 24.3128 6.02918C23.9928 6.02918 23.7008 6.10718 23.4368 6.26318C23.1768 6.41518 22.9688 6.62318 22.8128 6.88718C22.6568 7.14718 22.5788 7.43718 22.5788 7.75718V10.9012C22.5788 11.2252 22.6568 11.5192 22.8128 11.7832C22.9688 12.0432 23.1768 12.2512 23.4368 12.4072C23.7008 12.5592 23.9928 12.6352 24.3128 12.6352Z" fill="white"/>
</svg>
